<svg xmlns="http://www.w3.org/2000/svg" viewBox="0 0 276 522" fill="none" stroke="#000" stroke-width="0" class="css-178yklu"><rect x="1.5" y="1.5" width="273" height="519" rx="8.5" fill="#ffffff" stroke-width="3px" stroke="#000000"></rect><path d="M22.4 211.2c2.7 0 4.4-1.4 5-3.4l-1.8-.8c-.5 1.4-1.4 2.4-3.2 2.4-2.2 0-3.5-1.5-3.5-4 0-2.6 1.4-4 3.5-4 1.8 0 2.7 1 3.1 2.3l2-.7c-.6-1.9-2.3-3.4-5.1-3.4-3.4 0-5.7 2.5-5.7 5.8s2.2 5.8 5.7 5.8zm10.5 0c2.3 0 4-1.7 4-4.2s-1.7-4.2-4-4.2-4 1.7-4 4.2c0 2.4 1.7 4.2 4 4.2zm0-1.5c-1.2 0-2-.9-2-2.7 0-1.7.8-2.6 2-2.6s2 .9 2 2.6c0 1.8-.8 2.7-2 2.7zm6.2 1.3h2v-11.2h-2V211zm8 .2c2.4 0 4-1.7 4-4.2s-1.6-4.2-4-4.2c-2.3 0-4 1.7-4 4.2 0 2.4 1.7 4.2 4 4.2zm0-1.5c-1.1 0-2-.9-2-2.7 0-1.7.9-2.6 2-2.6 1.2 0 2 .9 2 2.6 0 1.8-.8 2.7-2 2.7zm6.2 1.3h2v-3.4c0-2 .7-2.7 2.4-2.7h.8v-2H58a3 3 0 00-2.8 1.9V203h-2v8zm15 .2c3 0 4.5-1.5 4.5-3.4 0-2-1.5-3-3.6-3.4l-1.5-.2c-1-.2-1.6-.7-1.6-1.4 0-.8.6-1.5 2-1.5 1.6 0 2.3 1 2.6 1.8l2-.7c-.5-1.4-1.8-2.8-4.5-2.8S64 201 64 202.9c0 2 1.3 2.9 3.3 3.2l1.4.3c1.4.2 2 .7 2 1.5 0 1-.8 1.6-2.4 1.6-1.7 0-2.6-1.1-2.9-2.3l-2 .7c.5 1.8 2 3.3 5 3.3zm9.5-.2h2.4v-1.6h-1.7c-.6 0-.8-.2-.8-.7v-4.1h2.1V203h-2v-2.5h-2v2.5H74v1.6h1.8v4.4c0 1.2.7 2 2 2zm9.3-8l-1 3.4-.8 2.2-.9-2.1L83 203h-2l3.6 8-.2.7c-.2.6-.5.8-1 .8h-2v1.6h2.1c1.4 0 2-.5 2.5-1.9l3.3-9.2h-2zm3.9 8h2v-11.2h-2V211zm8 .2c2 0 3.1-1 3.7-2.3l-1.8-.6c-.3.6-.8 1.4-2 1.4-1 0-1.8-.6-2-2.2h5.7c.3-2.6-1.2-4.7-3.7-4.7-2.2 0-3.9 1.7-3.9 4.2 0 2.7 1.6 4.2 4 4.2zm-2-5.1c.2-1.2 1-1.9 1.9-1.9 1 0 1.7.7 1.8 1.9H97zm10.8 5.1c2.2 0 3.5-1 3.5-2.5 0-1.7-1.5-2.3-2.8-2.5l-1-.2c-1-.2-1.2-.5-1.2-.9 0-.5.4-.9 1.3-.9 1 0 1.5.6 1.8 1.2l1.6-.7c-.3-.9-1.3-2-3.3-2-2 0-3.3 1-3.3 2.6 0 1.5 1 2 2.6 2.4l1 .2c1 .2 1.3.5 1.3 1s-.5.9-1.5.9c-1.4 0-1.8-1-1.9-1.4l-1.8.5c.4 1.5 1.9 2.3 3.7 2.3zM22 400.2c2.3 0 3.3-1.2 3.7-2v1.8h2v-5.7h-5.8v1.8h3.7c-.1 1.1-1.1 2.4-3.2 2.4-2 0-3.5-1.5-3.5-4 0-2.7 1.6-4.1 3.6-4.1 1.8 0 2.7 1 3.2 2.3l2-.7c-.6-1.8-2.2-3.4-5.2-3.4a5.7 5.7 0 00-5.8 5.8c0 3.7 2.4 5.8 5.3 5.8zm8.1-.2h2v-3.4c0-2 .7-2.7 2.4-2.7h.9v-2h-.6a3 3 0 00-2.8 1.9V392h-1.9v8zm7-9.2h2v-2h-2v2zm0 9.2h2v-8h-2v8zm7.5.2a3 3 0 002.6-1.3v1.1H49v-11.2h-2v4.4a3 3 0 00-2.5-1.4c-2 0-3.4 1.7-3.4 4.2 0 2.6 1.4 4.2 3.4 4.2zm.6-1.5c-1.1 0-2-.7-2-2.7s.9-2.7 2-2.7c1.2 0 2 1 2 2.7 0 1.8-.8 2.7-2 2.7zm15 1.5c3 0 4.5-1.5 4.5-3.4 0-2-1.5-3-3.6-3.4l-1.5-.2c-1-.2-1.6-.7-1.6-1.4 0-.8.6-1.5 2-1.5 1.6 0 2.3 1 2.6 1.8l2-.7c-.5-1.4-1.8-2.8-4.5-2.8s-4.2 1.5-4.2 3.3c0 2 1.3 2.9 3.3 3.2l1.4.3c1.4.2 2 .7 2 1.5 0 1-.8 1.6-2.4 1.6-1.7 0-2.6-1.1-2.9-2.3l-2 .7c.5 1.8 2 3.3 5 3.3zm9.5-.2H72v-1.6h-1.7c-.6 0-.8-.2-.8-.7v-4.1h2.1V392h-2v-2.5h-2v2.5h-1.8v1.6h1.8v4.4c0 1.2.7 2 2 2zm9.3-8l-1 3.4-.8 2.2-.9-2.1-1.5-3.5h-2l3.6 8-.2.7c-.2.6-.5.8-1 .8h-2v1.6h2.1c1.4 0 2-.5 2.5-1.9l3.3-9.2h-2zm3.9 8h2v-11.2h-2V400zm8 .2c2 0 3.1-1 3.7-2.3l-1.8-.6c-.3.6-.8 1.4-2 1.4-1 0-1.8-.6-2-2.2h5.7c.3-2.6-1.2-4.7-3.7-4.7-2.2 0-3.9 1.7-3.9 4.2 0 2.7 1.6 4.2 4 4.2zm-2-5.1c.2-1.2 1-1.9 1.9-1.9 1 0 1.7.7 1.8 1.9h-3.7zm10.8 5.1c2.2 0 3.5-1 3.5-2.5 0-1.7-1.5-2.3-2.8-2.5l-1-.2c-1-.2-1.2-.5-1.2-.9 0-.5.4-.9 1.3-.9 1 0 1.5.6 1.8 1.2l1.6-.7c-.3-.9-1.3-2-3.3-2-2 0-3.3 1-3.3 2.6 0 1.5 1 2 2.6 2.4l1 .2c1 .2 1.3.5 1.3 1s-.5.9-1.5.9c-1.4 0-1.8-1-1.9-1.4l-1.8.5c.4 1.5 1.9 2.3 3.7 2.3zM20 36h2.1v-9.4h4v-1.8H16v1.8h4V36zm9.3.2c2.1 0 3.3-1 3.8-2.3l-1.8-.6c-.3.6-.8 1.4-2 1.4-1 0-1.8-.6-1.9-2.2H33c.3-2.6-1.1-4.7-3.7-4.7-2.2 0-3.8 1.7-3.8 4.2 0 2.7 1.5 4.2 3.8 4.2zm-1.8-5.1c.1-1.2.9-1.9 1.8-1.9 1 0 1.7.7 1.8 1.9h-3.6zM34 36h2.1l.8-1.2 1-1.5 1.1 1.5.8 1.2h2.4l-3-4.1L42 28h-2.1l-.8 1c-.4.7-.6 1.1-1 1.5l-1-1.4-.6-1H34l2.8 3.8L34 36zm12.6 0H49v-1.6h-1.7c-.5 0-.7-.2-.7-.7v-4.1h2.1V28h-2.1v-2.5h-2V28H43v1.6h1.7V34c0 1.2.8 2 2 2zm12.7.2c3 0 4.5-1.5 4.5-3.4 0-2-1.5-3-3.6-3.4l-1.5-.2c-1-.2-1.6-.7-1.6-1.4 0-.8.6-1.5 2-1.5 1.6 0 2.3 1 2.6 1.8l2-.7c-.5-1.4-1.8-2.8-4.5-2.8S55 26 55 27.9c0 2 1.3 2.9 3.3 3.2l1.4.3c1.3.2 2 .7 2 1.5 0 1-.8 1.6-2.4 1.6-1.7 0-2.6-1.1-3-2.3l-1.9.7c.5 1.8 2 3.3 4.9 3.3zm9.5-.2H71v-1.6h-1.6c-.6 0-.8-.2-.8-.7v-4.1h2.1V28h-2v-2.5h-2V28H65v1.6h1.8V34c0 1.2.7 2 2 2zm9.3-8l-1 3.4-.8 2.2-.9-2.1-1.5-3.5h-2l3.6 8-.2.7c-.3.6-.5.8-1 .8h-2v1.6h2.1c1.4 0 2-.5 2.5-1.9l3.3-9.2h-2zm3.8 8h2V24.8h-2V36zm8 .2c2.1 0 3.2-1 3.8-2.3l-1.8-.6c-.3.6-.8 1.4-2 1.4-1 0-1.8-.6-2-2.2h5.7c.3-2.6-1.2-4.7-3.7-4.7-2.2 0-3.9 1.7-3.9 4.2 0 2.7 1.6 4.2 4 4.2zM88 31.1c.2-1.2 1-1.9 1.9-1.9 1 0 1.7.7 1.8 1.9H88zm10.7 5.1c2.3 0 3.6-1 3.6-2.5 0-1.7-1.5-2.3-2.8-2.5l-1-.2c-1-.2-1.2-.5-1.2-.9 0-.5.4-.9 1.3-.9 1 0 1.5.6 1.8 1.2l1.6-.7c-.3-.9-1.3-2-3.3-2-2 0-3.3 1-3.3 2.6 0 1.5 1 2 2.6 2.4l1 .2c1 .2 1.3.5 1.3 1s-.5.9-1.5.9c-1.4 0-1.8-1-1.9-1.4l-1.8.5c.4 1.5 1.9 2.3 3.6 2.3z" fill="#000" stroke="#000000" stroke-width="0px"></path><circle cx="32" cy="247" r="15" fill="#000" stroke-width="2px" stroke="#000000"></circle><path d="M58.9 253h7.9v-1.8h-6c2.3-1.1 3.9-2.1 4.8-3.3.7-.8 1-1.7 1-2.9 0-2-1.3-3.4-3.8-3.4-2.6 0-4 1.8-4 3.8l2 .3c0-1.3.6-2.4 2-2.4 1 0 1.8.7 1.8 2 0 1.7-1.6 3.1-5.7 5.5v2.2zm14.4.2c2.7 0 4.6-2 4.6-5.8s-2-5.8-4.6-5.8c-2.6 0-4.6 2-4.6 5.8s2 5.8 4.6 5.8zm0-1.7c-1.4 0-2.4-1.2-2.4-4.1 0-2.8 1-4 2.4-4s2.4 1.2 2.4 4c0 2.9-1 4-2.4 4zm9.1 1.5h2v-11.2h-1.7a4 4 0 01-3.3 2.4v2c1.3 0 2.4-1 3-2v8.8zm7.5.2c3.5 0 5.4-2.4 5.4-6.2 0-1.8-.5-3.3-1.4-4.2a4.1 4.1 0 00-3-1.2c-2.4 0-4 1.6-4 3.9 0 2 1.5 3.5 3.5 3.5 1.4 0 2.5-.7 2.9-1.7 0 1.6-.5 2.6-1.2 3.3-.6.5-1.4.7-2.2.7a6 6 0 01-2.4-.4v2c.6.2 1.4.3 2.4.3zm1-5.8c-1 0-2-.8-2-2 0-1.3 1-2.1 2-2.1 1.1 0 2 .8 2 2 0 1.3-.9 2-2 2zm9.7 7.2h2l4.2-14.5H105l-4.3 14.5zM113 253h2v-4.4h2.2c1.4 0 2 .5 2.3 1.8l.4 2.6h2.2l-.5-2.7c-.3-1.6-1-2.3-2.5-2.4 1.4-.3 2.8-1.2 2.8-3.1 0-1.8-1.4-3-3.7-3h-5.2V253zm2-6.2v-3.2h2.8c1.1 0 2 .5 2 1.6s-.9 1.6-2 1.6h-2.8zm9.3-3h2v-2h-2v2zm0 9.2h2v-8h-2v8zm8.2.2c1.9 0 3.2-1 3.8-2.5l-1.9-.7c-.3 1-.8 1.7-2 1.7-1 0-2-1-2-2.7 0-1.8 1-2.6 2-2.6s1.6.6 2 1.4l1.7-.6c-.4-1.4-1.7-2.4-3.6-2.4-2.3 0-4 1.7-4 4.2 0 2.6 1.6 4.2 4 4.2zm5.7-.2h2v-3.6c0-1 0-3 1.7-3 1 0 1.5.5 1.5 1.7v4.9h2v-5.3c0-1.7-.9-3-2.7-3-1.6 0-2.3 1.1-2.6 1.6v-4.5h-2V253zm14.2 0h5.3c2.2 0 4-1 4-3.1 0-1.5-1.2-2.5-2.6-2.8 1.2-.3 2.1-1.2 2.1-2.6 0-1.6-1.2-2.7-3.6-2.7h-5.2V253zm2.1-6.7v-2.7h2.8c1.1 0 1.8.4 1.8 1.3 0 1-.7 1.4-1.8 1.4h-2.8zm0 5V248h2.9c1.2 0 2 .5 2 1.5 0 1.1-.8 1.6-2 1.6h-2.9zm9.4 1.7h2v-11.2h-2V253zm6.7.2a3 3 0 002.6-1.4c.1.7.5 1.2 1.5 1.2h1.5v-1.5h-.8c-.4 0-.4-.1-.4-.5v-3.2c0-2-1.2-3-3.4-3-2.3 0-3.5 1.2-3.7 2.3l1.8.5c.2-.7.7-1.3 1.9-1.3 1 0 1.4.4 1.4 1.2v.3c-2.6.2-5 1-5 3.2 0 1.4 1 2.2 2.6 2.2zm.6-1.4c-.8 0-1.2-.4-1.2-1 0-1.2 1.4-1.5 3-1.7v.6c0 1.4-.9 2-1.8 2zm10.1 1.4c1.9 0 3.2-1 3.8-2.5l-1.8-.7c-.4 1-1 1.7-2 1.7-1.1 0-2-1-2-2.7 0-1.8.8-2.6 2-2.6 1 0 1.5.6 1.8 1.4l1.8-.6c-.4-1.4-1.7-2.4-3.6-2.4-2.3 0-4 1.7-4 4.2 0 2.6 1.6 4.2 4 4.2zm11.6-.2h2.5l-3.8-4.8 3.3-3.2h-2.4l-3.6 3.6v-6.8h-2V253h2v-2.2l1.3-1.3 2.7 3.5z" fill="#000" stroke="#000000" stroke-width="0px"></path><circle cx="32" cy="293" r="15" fill="#5551ff" stroke-width="2px" stroke="#000000"></circle><path d="M58.9 299h7.9v-1.8h-6c2.3-1.1 3.9-2.1 4.8-3.3.7-.8 1-1.7 1-2.9 0-2-1.3-3.4-3.8-3.4-2.6 0-4 1.8-4 3.8l2 .3c0-1.3.6-2.4 2-2.4 1 0 1.8.7 1.8 2 0 1.7-1.6 3.1-5.7 5.5v2.2zm14.4.2c2.7 0 4.6-2 4.6-5.8s-2-5.8-4.6-5.8c-2.6 0-4.6 2-4.6 5.8s2 5.8 4.6 5.8zm0-1.7c-1.4 0-2.4-1.2-2.4-4.1 0-2.8 1-4 2.4-4s2.4 1.2 2.4 4c0 2.9-1 4-2.4 4zm9.1 1.5h2v-11.2h-1.7a4 4 0 01-3.3 2.4v2c1.3 0 2.4-1 3-2v8.8zm7.5.2c3.5 0 5.4-2.4 5.4-6.2 0-1.8-.5-3.3-1.4-4.2a4.1 4.1 0 00-3-1.2c-2.4 0-4 1.6-4 3.9 0 2 1.5 3.5 3.5 3.5 1.4 0 2.5-.7 2.9-1.7 0 1.6-.5 2.6-1.2 3.3-.6.5-1.4.7-2.2.7a6 6 0 01-2.4-.4v2c.6.2 1.4.3 2.4.3zm1-5.8c-1 0-2-.8-2-2 0-1.3 1-2.1 2-2.1 1.1 0 2 .8 2 2 0 1.3-.9 2-2 2zm9.7 7.2h2l4.2-14.5H105l-4.3 14.5zM113 299h8.2v-1.8h-6.2v-3.1h4.6v-1.8H115v-2.7h6.2v-1.8h-8.2V299zm10.5 0h2v-11.2h-2V299zm8 .2c2 0 3.1-1 3.7-2.3l-1.8-.6c-.3.6-.8 1.4-2 1.4-1 0-1.8-.6-2-2.2h5.7c.3-2.6-1.2-4.7-3.7-4.7-2.2 0-3.9 1.7-3.9 4.2 0 2.7 1.6 4.2 4 4.2zm-2-5.1c.2-1.2 1-1.9 1.9-1.9 1 0 1.7.7 1.8 1.9h-3.7zm11.3 5.1c1.9 0 3.2-1 3.8-2.5l-1.8-.7c-.3 1-1 1.7-2 1.7-1.1 0-2-1-2-2.7 0-1.8.9-2.6 2-2.6 1 0 1.6.6 1.9 1.4l1.8-.6c-.5-1.4-1.8-2.4-3.7-2.4-2.3 0-4 1.7-4 4.2 0 2.6 1.6 4.2 4 4.2zm8.5-.2h2.4v-1.6h-1.7c-.5 0-.8-.2-.8-.7v-4.1h2.2V291H149v-2.5h-2v2.5h-1.6v1.6h1.7v4.4c0 1.2.7 2 2 2zm4.2 0h2v-3.4c0-2 .7-2.7 2.4-2.7h.9v-2h-.5a3 3 0 00-2.8 1.9V291h-2v8zm7-9.2h2v-2h-2v2zm0 9.2h2v-8h-2v8zm8.2.2c1.8 0 3.2-1 3.8-2.5l-1.9-.7c-.3 1-.9 1.7-2 1.7-1 0-2-1-2-2.7 0-1.8 1-2.6 2-2.6s1.6.6 2 1.4l1.7-.6c-.5-1.4-1.7-2.4-3.6-2.4-2.3 0-4.1 1.7-4.1 4.2 0 2.6 1.7 4.2 4 4.2zm10.1-.2h5.3c2.2 0 4-1 4-3.1 0-1.5-1.2-2.5-2.6-2.8 1.2-.3 2.1-1.2 2.1-2.6 0-1.6-1.2-2.7-3.6-2.7h-5.2V299zm2.1-6.7v-2.7h2.8c1.1 0 1.8.4 1.8 1.3 0 1-.7 1.4-1.8 1.4h-2.8zm0 5V294h2.9c1.2 0 2 .5 2 1.5 0 1.1-.8 1.6-2 1.6h-2.9zm9.4 1.7h2v-11.2h-2V299zm7 .2a3 3 0 002.7-1.5v1.3h1.9v-8h-2v3.8c0 1.3-.2 2.8-1.8 2.8-.8 0-1.3-.5-1.3-1.7V291h-2v5.3c0 1.8.9 3 2.5 3zm10.6 0c2.1 0 3.2-1 3.8-2.3l-1.8-.6c-.3.6-.8 1.4-2 1.4-1 0-1.8-.6-2-2.2h5.7c.3-2.6-1.2-4.7-3.7-4.7-2.2 0-3.9 1.7-3.9 4.2 0 2.7 1.6 4.2 4 4.2zm-1.9-5.1c.2-1.2 1-1.9 1.9-1.9 1 0 1.7.7 1.8 1.9h-3.7z" fill="#000" stroke="#000000" stroke-width="0px"></path><circle cx="32" cy="343" r="15" fill="#ff8577" stroke-width="2px" stroke="#000000"></circle><path d="M58.9 349h7.9v-1.8h-6c2.3-1.1 3.9-2.1 4.8-3.3.7-.8 1-1.7 1-2.9 0-2-1.3-3.4-3.8-3.4-2.6 0-4 1.8-4 3.8l2 .3c0-1.3.6-2.4 2-2.4 1 0 1.8.7 1.8 2 0 1.7-1.6 3.1-5.7 5.5v2.2zm14.4.2c2.7 0 4.6-2 4.6-5.8s-2-5.8-4.6-5.8c-2.6 0-4.6 2-4.6 5.8s2 5.8 4.6 5.8zm0-1.7c-1.4 0-2.4-1.2-2.4-4.1 0-2.8 1-4 2.4-4s2.4 1.2 2.4 4c0 2.9-1 4-2.4 4zm9.1 1.5h2v-11.2h-1.7a4 4 0 01-3.3 2.4v2c1.3 0 2.4-1 3-2v8.8zm7.5.2c3.5 0 5.4-2.4 5.4-6.2 0-1.8-.5-3.3-1.4-4.2a4.1 4.1 0 00-3-1.2c-2.4 0-4 1.6-4 3.9 0 2 1.5 3.5 3.5 3.5 1.4 0 2.5-.7 2.9-1.7 0 1.6-.5 2.6-1.2 3.3-.6.5-1.4.7-2.2.7a6 6 0 01-2.4-.4v2c.6.2 1.4.3 2.4.3zm1-5.8c-1 0-2-.8-2-2 0-1.3 1-2.1 2-2.1 1.1 0 2 .8 2 2 0 1.3-.9 2-2 2zm9.7 7.2h2l4.2-14.5H105l-4.3 14.5zm17.2-1.4c2.7 0 4.4-1.4 5-3.4l-1.8-.8c-.5 1.4-1.4 2.4-3.2 2.4-2.2 0-3.5-1.5-3.5-4 0-2.6 1.4-4 3.5-4 1.8 0 2.7 1 3.1 2.3l2-.7c-.6-1.9-2.3-3.4-5.1-3.4-3.4 0-5.7 2.5-5.7 5.8s2.2 5.8 5.7 5.8zm10.5 0c2.3 0 4-1.7 4-4.2s-1.7-4.2-4-4.2-4 1.7-4 4.2c0 2.4 1.7 4.2 4 4.2zm0-1.5c-1.2 0-2-.9-2-2.7 0-1.7.8-2.6 2-2.6s2 .9 2 2.6c0 1.8-.8 2.7-2 2.7zm6.2 1.3h2v-3.4c0-2 .6-2.7 2.3-2.7h.9v-2h-.5a3 3 0 00-2.8 1.9V341h-2v8zm9 .2a3 3 0 002.6-1.4c.1.7.5 1.2 1.5 1.2h1.5v-1.5h-.8c-.4 0-.5-.1-.5-.5v-3.2c0-2-1.2-3-3.3-3-2.3 0-3.5 1.2-3.7 2.3l1.8.5c.2-.7.7-1.3 1.9-1.3 1 0 1.4.4 1.4 1.2v.3c-2.6.2-5 1-5 3.2 0 1.4 1 2.2 2.5 2.2zm.6-1.4c-.8 0-1.2-.4-1.2-1 0-1.2 1.4-1.5 3-1.7v.6c0 1.4-.9 2-1.8 2zm6.6 1.2h2v-11.2h-2V349zM59.5 442h4c3.3 0 5.7-2.1 5.7-5.7 0-3.4-2.4-5.5-5.6-5.5h-4.1V442zm2-1.8v-7.6h2c2.4 0 3.6 1.5 3.6 3.8 0 2.5-1.2 3.8-3.8 3.8h-1.8zm13.3 2c2.1 0 3.2-1 3.8-2.3l-1.8-.6c-.3.6-.8 1.4-2 1.4-1 0-1.8-.6-2-2.2h5.7c.3-2.6-1.2-4.7-3.7-4.7-2.2 0-3.9 1.7-3.9 4.2 0 2.7 1.6 4.2 4 4.2zm-1.9-5.1c.2-1.2 1-1.9 1.9-1.9 1 0 1.7.7 1.8 1.9h-3.7zm10.8 5.1c2.2 0 3.5-1 3.5-2.5 0-1.7-1.5-2.3-2.8-2.5l-1-.2c-1-.2-1.2-.5-1.2-.9 0-.5.4-.9 1.3-.9 1 0 1.5.6 1.8 1.2l1.6-.7c-.3-.9-1.3-2-3.3-2-2 0-3.3 1-3.3 2.6 0 1.5 1 2 2.6 2.4l1 .2c1 .2 1.3.5 1.3 1s-.5.9-1.5.9c-1.4 0-1.8-1-1.9-1.4l-1.8.5c.4 1.5 1.9 2.3 3.7 2.3zm11.5-.2h2.4l-3.8-4.8 3.4-3.2h-2.4l-3.6 3.6v-6.8h-2V442h2v-2.2l1.3-1.3 2.7 3.5zm6.6 0h2.4v-1.6h-1.7c-.5 0-.7-.2-.7-.7v-4.1h2V434h-2v-2.5h-2v2.5h-1.7v1.6h1.7v4.4c0 1.2.7 2 2 2zm7.6.2c2.3 0 4-1.7 4-4.2s-1.6-4.2-4-4.2c-2.3 0-4 1.7-4 4.2 0 2.4 1.7 4.2 4 4.2zm0-1.5c-1.2 0-2-.9-2-2.7 0-1.7.8-2.6 2-2.6s2 .9 2 2.6c0 1.8-.8 2.7-2 2.7zm6.2 4.4h2V441c.3.6 1.1 1.3 2.5 1.3 2 0 3.4-1.6 3.4-4.2 0-2.5-1.4-4.2-3.4-4.2a3 3 0 00-2.6 1.4V434h-2v11.1zm3.8-4.4c-1.1 0-2-.9-2-2.7 0-1.8.9-2.7 2-2.7 1.2 0 2 .7 2 2.7s-.8 2.7-2 2.7zM23 425h6v20h-6zM32 425h6v20h-6zM41 425h6v20h-6zM59.5 488h2v-9.3L65 488h1.8l3.4-9.3v9.3h2v-11.2h-3.3l-2.1 5.9-.8 2.2a37 37 0 01-.9-2.2l-2.1-5.9h-3.4V488zm19 .2c2.2 0 4-1.7 4-4.2s-1.7-4.2-4-4.2c-2.4 0-4 1.7-4 4.2 0 2.4 1.6 4.2 4 4.2zm0-1.5c-1.3 0-2-.9-2-2.7 0-1.7.7-2.6 2-2.6 1.1 0 2 .9 2 2.6 0 1.8-.9 2.7-2 2.7zm10.6 1.5c2 0 3.4-1.6 3.4-4.2 0-2.5-1.4-4.2-3.4-4.2a3 3 0 00-2.6 1.4v-4.4h-2V488h2v-1.1a3 3 0 002.6 1.3zm-.6-1.5c-1.2 0-2-.9-2-2.7 0-1.8.8-2.7 2-2.7 1.1 0 2 .7 2 2.7s-.9 2.7-2 2.7zm6-8h2.1v-2h-2v2zm.1 9.3h2v-8h-2v8zm4.6 0h2v-11.2h-2V488zm8 .2c2.1 0 3.2-1 3.7-2.3l-1.7-.6c-.3.6-.8 1.4-2 1.4-1 0-1.9-.6-2-2.2h5.7c.2-2.6-1.2-4.7-3.7-4.7-2.2 0-3.9 1.7-3.9 4.2 0 2.7 1.6 4.2 4 4.2zm-1.9-5.1c.2-1.2 1-1.9 1.9-1.9 1 0 1.7.7 1.8 1.9h-3.7zM23 471h6v20h-6zM32 471h6v20h-6zM41 471h6v20h-6zM33.1 80h5.4L30 57.6h-6.3L15.2 80h5.2l1.8-5.2h9.1l1.8 5.2zm-9.5-9.3l1.7-4.8c.6-1.5.6-3.2.6-5.6h1.8c0 2.4 0 4 .6 5.6l1.6 4.8h-6.3zm20.6 15.5h8.2c3.1 0 5.6-1.7 5.6-5 0-2.5-2.2-4.8-5.6-4.8h-6.9c-1 0-1.6 0-1.6-.7 0-.5.3-.8 1.2-1 1 .3 2.2.5 3.3.5 3.8 0 6.6-2.1 7-5.6v-.3c.2-1.6.4-1.8 1.4-1.8h1.8V64h-.8c-1.6 0-2.3.5-2.6 2.9H54c-.9-2.4-3.3-3.4-5.9-3.4-3.7 0-6.7 2.4-6.7 5.8 0 1.6.7 2.5 1.9 3.3V74c-1.4.5-2.7 1.3-2.7 3 0 1.2.8 2 1.9 2.2v1.5c-1.2.3-2.2 1.3-2.2 2.5 0 1.6 1 3 4 3zm4.2-14c-1.7 0-2.8-1.1-2.8-2.7 0-1.7 1.1-3 2.8-3 1.7 0 2.8 1.3 2.8 3 0 1.6-1 2.7-2.8 2.7zm-3.2 10.7c-.8 0-1.6-.4-1.6-1.5 0-.6.5-1.2.9-1.4h7c1.5 0 2 .7 2 1.4 0 1-.5 1.5-2 1.5h-6.3zM74.5 80h4c3.3 0 5.7-2.1 5.7-5.7 0-3.4-2.4-5.5-5.6-5.5h-4.1V80zm2-1.8v-7.6h2c2.4 0 3.6 1.5 3.6 3.8 0 2.5-1.2 3.8-3.8 3.8h-1.8zm13.3 2c2.1 0 3.2-1 3.8-2.3l-1.8-.6c-.3.6-.8 1.4-2 1.4-1 0-1.8-.6-2-2.2h5.7c.3-2.6-1.2-4.7-3.7-4.7-2.2 0-3.9 1.7-3.9 4.2 0 2.7 1.6 4.2 4 4.2zM88 75.1c.2-1.2 1-1.9 1.9-1.9 1 0 1.7.7 1.8 1.9h-3.7zm10.8 5.1c2.2 0 3.5-1 3.5-2.5 0-1.7-1.5-2.3-2.8-2.5l-1-.2c-1-.2-1.2-.5-1.2-.9 0-.5.4-.9 1.3-.9 1 0 1.5.6 1.8 1.2l1.6-.7c-.3-.9-1.3-2-3.3-2-2 0-3.3 1-3.3 2.6 0 1.5 1 2 2.6 2.4l1 .2c1 .2 1.3.5 1.3 1s-.5.9-1.5.9c-1.4 0-1.8-1-1.9-1.4l-1.8.5c.4 1.5 1.9 2.3 3.7 2.3zm11.5-.2h2.4l-3.8-4.8 3.4-3.2h-2.4l-3.6 3.6v-6.8h-2V80h2v-2.2l1.3-1.3 2.7 3.5zm6.6 0h2.4v-1.6h-1.7c-.5 0-.7-.2-.7-.7v-4.1h2V72h-2v-2.5h-2V72h-1.7v1.6h1.7V78c0 1.2.7 2 2 2zm7.6.2c2.3 0 4-1.7 4-4.2s-1.6-4.2-4-4.2c-2.3 0-4 1.7-4 4.2 0 2.4 1.7 4.2 4 4.2zm0-1.5c-1.2 0-2-.9-2-2.7 0-1.7.8-2.6 2-2.6s2 .9 2 2.6c0 1.8-.8 2.7-2 2.7zm6.2 4.4h2V79c.3.6 1.1 1.3 2.5 1.3 2 0 3.4-1.6 3.4-4.2 0-2.5-1.4-4.2-3.4-4.2a3 3 0 00-2.6 1.4V72h-2v11.1zm3.8-4.4c-1.1 0-2-.9-2-2.7 0-1.8.9-2.7 2-2.7 1.2 0 2 .7 2 2.7s-.8 2.7-2 2.7zm9.3 3h1.9l4.3-14.6H148l-4.3 14.5zm12.2-1.7h2v-4.9h5.3V80h2.1V68.8h-2v4.5H158v-4.5h-2V80zm14.6 0h2V68.8h-1.7a4 4 0 01-3.3 2.4v2c1.3 0 2.4-1 3-2V80zM74.5 122h4c3.3 0 5.7-2.1 5.7-5.7 0-3.4-2.4-5.5-5.6-5.5h-4.1V122zm2-1.8v-7.6h2c2.4 0 3.6 1.5 3.6 3.8 0 2.5-1.2 3.8-3.8 3.8h-1.8zm13.3 2c2.1 0 3.2-1 3.8-2.3l-1.8-.6c-.3.6-.8 1.4-2 1.4-1 0-1.8-.6-2-2.2h5.7c.3-2.6-1.2-4.7-3.7-4.7-2.2 0-3.9 1.7-3.9 4.2 0 2.7 1.6 4.2 4 4.2zm-1.9-5.1c.2-1.2 1-1.9 1.9-1.9 1 0 1.7.7 1.8 1.9h-3.7zm10.8 5.1c2.2 0 3.5-1 3.5-2.5 0-1.7-1.5-2.3-2.8-2.5l-1-.2c-1-.2-1.2-.5-1.2-.9 0-.5.4-.9 1.3-.9 1 0 1.5.6 1.8 1.2l1.6-.7c-.3-.9-1.3-2-3.3-2-2 0-3.3 1-3.3 2.6 0 1.5 1 2 2.6 2.4l1 .2c1 .2 1.3.5 1.3 1s-.5.9-1.5.9c-1.4 0-1.8-1-1.9-1.4l-1.8.5c.4 1.5 1.9 2.3 3.7 2.3zm11.5-.2h2.4l-3.8-4.8 3.4-3.2h-2.4l-3.6 3.6v-6.8h-2V122h2v-2.2l1.3-1.3 2.7 3.5zm6.6 0h2.4v-1.6h-1.7c-.5 0-.7-.2-.7-.7v-4.1h2V114h-2v-2.5h-2v2.5h-1.7v1.6h1.7v4.4c0 1.2.7 2 2 2zm7.6.2c2.3 0 4-1.7 4-4.2s-1.6-4.2-4-4.2c-2.3 0-4 1.7-4 4.2 0 2.4 1.7 4.2 4 4.2zm0-1.5c-1.2 0-2-.9-2-2.7 0-1.7.8-2.6 2-2.6s2 .9 2 2.6c0 1.8-.8 2.7-2 2.7zm6.2 4.4h2V121c.3.6 1.1 1.3 2.5 1.3 2 0 3.4-1.6 3.4-4.2 0-2.5-1.4-4.2-3.4-4.2a3 3 0 00-2.6 1.4V114h-2v11.1zm3.8-4.4c-1.1 0-2-.9-2-2.7 0-1.8.9-2.7 2-2.7 1.2 0 2 .7 2 2.7s-.8 2.7-2 2.7zm9.3 3h1.9l4.3-14.6H148l-4.3 14.5zm12.2-1.7h2v-4.9h5.3v4.9h2.1v-11.2h-2v4.5H158v-4.5h-2V122zm12 0h8v-1.8h-6c2.2-1.1 3.9-2.1 4.8-3.3.7-.8 1-1.7 1-2.9 0-2-1.4-3.4-3.8-3.4-2.7 0-4 1.8-4 3.8l2 .3c0-1.3.6-2.4 2-2.4 1 0 1.7.7 1.7 2 0 1.7-1.5 3.1-5.6 5.5v2.2zM33.1 122h5.4L30 99.6h-6.3L15.2 122h5.2l1.8-5.2h9.1l1.8 5.2zm-9.5-9.3l1.7-4.9c1-2.5 1.3-3.5 1.5-4.3l1.5 4.3 1.6 5h-6.3zM45 128.2h7.4c3.1 0 5.6-1.7 5.6-5 0-2.5-2.2-4.8-5.6-4.8h-6.9c-1 0-1.6 0-1.6-.7 0-.5.3-.8 1.2-1 1 .3 2.2.5 3.3.5 3.8 0 6.6-2.1 7-5.6v-.3c.2-1.6.4-1.8 1.4-1.8h1.8V106h-1.2c-2.2 0-2.8.6-2.9 2.8-1-2-3.3-3.3-6.2-3.3-4 0-7 2.4-7 6 0 1.5.7 3 1.8 3.8-1.3.7-2.6 2-2.6 3.5s.6 2.3 1.5 3c-.9.6-1.8 1.7-1.8 3.1 0 2 1.4 3.3 4.8 3.3zm3.4-14c-1.7 0-2.8-1.1-2.8-2.7 0-1.7 1.1-3 2.8-3 1.7 0 2.8 1.3 2.8 3 0 1.6-1 2.7-2.8 2.7zm-3.2 10.7c-.8 0-1.6-.4-1.6-1.5 0-.6.5-1.2.9-1.4h7c1.5 0 2 .7 2 1.4 0 1-.5 1.5-2 1.5h-6.3z" fill="#000" stroke="#000000" stroke-width="0px"></path><path fill-rule="evenodd" clip-rule="evenodd" d="M238.3 143h1.7v11.8a4.2 4.2 0 010 8.1v3.4h-1.7V163a4.2 4.2 0 010-8.2V143zm3.4 15.8a2.5 2.5 0 11-5 0 2.5 2.5 0 015 0zm8.3 7.5h1.7v-11.7a4.2 4.2 0 000-8.2V143H250v3.4a4.2 4.2 0 000 8.2v11.7zm3.3-15.8a2.5 2.5 0 10-5 0 2.5 2.5 0 005 0z" fill="#000" fill-opacity="0.8" stroke="#000000" stroke-width="0px"></path><path d="M74.5 164h4c3.3 0 5.7-2.1 5.7-5.7 0-3.4-2.4-5.5-5.6-5.5h-4.1V164zm2-1.8v-7.6h2c2.4 0 3.6 1.5 3.6 3.8 0 2.5-1.2 3.8-3.8 3.8h-1.8zm13.3 2c2.1 0 3.2-1 3.8-2.3l-1.8-.6c-.3.6-.8 1.4-2 1.4-1 0-1.8-.6-2-2.2h5.7c.3-2.6-1.2-4.7-3.7-4.7-2.2 0-3.9 1.7-3.9 4.2 0 2.7 1.6 4.2 4 4.2zm-1.9-5.1c.2-1.2 1-1.9 1.9-1.9 1 0 1.7.7 1.8 1.9h-3.7zm10.8 5.1c2.2 0 3.5-1 3.5-2.5 0-1.7-1.5-2.3-2.8-2.5l-1-.2c-1-.2-1.2-.5-1.2-.9 0-.5.4-.9 1.3-.9 1 0 1.5.6 1.8 1.2l1.6-.7c-.3-.9-1.3-2-3.3-2-2 0-3.3 1-3.3 2.6 0 1.5 1 2 2.6 2.4l1 .2c1 .2 1.3.5 1.3 1s-.5.9-1.5.9c-1.4 0-1.8-1-1.9-1.4l-1.8.5c.4 1.5 1.9 2.3 3.7 2.3zm11.5-.2h2.4l-3.8-4.8 3.4-3.2h-2.4l-3.6 3.6v-6.8h-2V164h2v-2.2l1.3-1.3 2.7 3.5zm6.6 0h2.4v-1.6h-1.7c-.5 0-.7-.2-.7-.7v-4.1h2V156h-2v-2.5h-2v2.5h-1.7v1.6h1.7v4.4c0 1.2.7 2 2 2zm7.6.2c2.3 0 4-1.7 4-4.2s-1.6-4.2-4-4.2c-2.3 0-4 1.7-4 4.2 0 2.4 1.7 4.2 4 4.2zm0-1.5c-1.2 0-2-.9-2-2.7 0-1.7.8-2.6 2-2.6s2 .9 2 2.6c0 1.8-.8 2.7-2 2.7zm6.2 4.4h2V163c.3.6 1.1 1.3 2.5 1.3 2 0 3.4-1.6 3.4-4.2 0-2.5-1.4-4.2-3.4-4.2a3 3 0 00-2.6 1.4V156h-2v11.1zm3.8-4.4c-1.1 0-2-.9-2-2.7 0-1.8.9-2.7 2-2.7 1.2 0 2 .7 2 2.7s-.8 2.7-2 2.7zm9.3 3h1.9l4.3-14.6H148l-4.3 14.5zm12.2-1.7h2v-4.1h2.8c2.4 0 4-1.4 4-3.6 0-2.1-1.6-3.5-4-3.5H156V164zm2-5.9v-3.5h2.5c1.3 0 2 .7 2 1.7 0 1.1-.7 1.8-2 1.8H158zM33 165h3.2L28 142.6h-4L15.4 165h3.1l2.2-6h10l2.2 6zm-11.2-8.8l2.3-6.3 1.7-4.9c.4 1 1 2.4 1.8 4.9l2.2 6.3h-8zm20.9 15h7.4c2.7 0 5-1.4 5-4.3 0-2.7-2-4.4-5-4.4h-7c-1.1 0-1.3-.6-1.3-1 0-.7.5-1.3 1.4-1.7.9.6 1.9.7 3 .7 3.5 0 5.9-2.4 6.1-6l.1-.8c.1-1.9.7-2.2 2.1-2.2h1.2v-2.3H54c-1.5 0-2.2 1-2.6 2.2a6 6 0 00-5.2-2.7c-3.7 0-6.3 2.6-6.3 5.9 0 2 .8 3.4 1.7 4.2-1 .8-2.3 1.8-2.3 3.4 0 1.2.5 2 1.4 2.5-1 .6-2.1 1.7-2.1 3.3 0 1.9 1 3.2 4.1 3.2zm3.5-13c-2.2 0-3.6-1.4-3.6-3.6s1.4-3.6 3.6-3.6c2.1 0 3.5 1.4 3.5 3.6s-1.4 3.6-3.5 3.6zm-2.6 10.6c-1.6 0-2.5-.3-2.5-1.7 0-1 .7-1.7 1.2-2.1h7.5c1.3 0 2.5.3 2.5 1.9 0 1.6-1.2 2-2.5 2h-6.2z" fill="#000" stroke="#000000" stroke-width="0px"></path></svg>