<svg xmlns="http://www.w3.org/2000/svg" viewBox="0 0 357 125" fill="none" stroke-width="3" class="css-13b875v"><path d="M141.6 124.2c2.5 0 4-1.3 4-3.2 0-1.4-1-2.5-2.3-2.8 1.2-.4 2-1.3 2-2.7 0-1.7-1.3-3-3.7-3-2.3 0-3.7 1.5-3.8 3.3l2 .3c0-1 .8-1.8 1.8-1.8s1.7.6 1.7 1.6-.8 1.6-1.7 1.6h-1v1.7h1c1.2 0 2 .6 2 1.7 0 1-.9 1.6-2 1.6-1.2 0-2-.8-2-2.1l-2.2.4c.3 2.1 1.8 3.4 4.2 3.4zm8-.2h2.2c0-3.5 1-6.7 4-9v-2.2H148v1.8h6.4c-2.5 1.8-4.8 5-4.8 9.4zm10.2 0h2.2c0-3.5 1.1-6.7 4.1-9v-2.2h-7.8v1.8H164.6c-2.4 1.8-4.8 5-4.8 9.4zm20-1.6l2.8-2.8 2.8 2.8 1.2-1.2-2.8-2.8 2.8-2.8-1.2-1.1-2.8 2.7-2.8-2.8-1.1 1.2 2.8 2.8-2.8 2.8 1.1 1.2zm22 1.8c3.5 0 5.4-2.4 5.4-6.2 0-1.8-.4-3.3-1.4-4.2a4.1 4.1 0 00-3-1.2c-2.4 0-4 1.6-4 3.9 0 2 1.6 3.5 3.6 3.5 1.3 0 2.4-.7 2.8-1.7 0 1.6-.4 2.6-1.2 3.3-.6.5-1.3.7-2.2.7a6 6 0 01-2.3-.4v2c.6.2 1.4.3 2.4.3zm1.1-5.8c-1 0-2-.8-2-2 0-1.3 1-2.1 2-2.1 1.1 0 2 .8 2 2 0 1.3-.9 2-2 2zm10.5 5.8c2.5 0 4-1.5 4-3.7 0-2.3-1.6-3.6-3.6-3.6-1.2 0-2 .4-2.5 1l.2-1.2.3-2.1h5.2v-1.8h-6.6l-1 6.3 2 .4c.4-.6 1-1 1.9-1 1.2 0 2 .7 2 2s-.8 2-2 2-2-.8-2.2-1.8l-1.9.6c.4 1.7 1.9 3 4.2 3z" fill="#5551ff" stroke-width="3px"></path><path stroke="#5551ff" d="M7.5 8.3h341v96.5H7.5z" fill="none" stroke-width="3px"></path><path d="M341.5 2H355v13h-13.5V2zM341.5 98.5H355v13h-13.5v-13zM1.5 1.5H15v13H1.5zM1.5 100.5H15v13H1.5z" fill="#ffffff" stroke="#5551ff" stroke-width="3px"></path><path d="M27.2 79h13.4V60.4h7.8c5.1 0 7.2 1.9 8 7l2 11.6h14.4l-2.2-11c-1.8-8.4-6.4-10.2-15.8-10.3v-4.3c6.9-.2 16.6-1.2 16.6-11.7 0-8-6.4-13.1-17.6-13.1H27.2V79zm13.4-28.3V39.2h10c4 0 6.9 1.9 6.9 5.7 0 3.8-2.9 5.8-6.8 5.8h-10zM89 80.2c6.7 0 10-4 11.5-8.7h3.7c.1 5 1.4 7.5 7.8 7.5h5.7v-9h-2.8c-1.8 0-2-.4-2-2.2V56c0-9.5-6.3-14.3-17-14.3-11.1 0-17.8 5-18.6 11.4l11.6 2c.8-3.2 2.7-5.2 6.7-5.2 3.5 0 5 1.7 5 4.5v1.3c-12.9 1-22.8 4.6-22.8 14 0 6.5 4.7 10.5 11.2 10.5zm5.1-8.4c-2.6 0-4-1.3-4-3.5 0-4 4.6-5.4 10.6-6.1v2.2c0 5-3 7.4-6.6 7.4zM128.5 93h20.4c7.8 0 13.1-4.3 13.1-11.3 0-6-4.6-11-13.1-11h-16.2c-2 0-3.4-.3-3.4-1.9 0-1 .6-1.8 2-2.4 2.2 1 5 1.4 8.1 1.4 9.5 0 15-4.9 16-11.4l.3-.8c.4-3 1-3.6 3-3.6h4.8v-9.1h-2.1c-3.7 0-5.4 1.9-5.7 7h-3.5c-1.8-5.7-7.4-8.2-14.3-8.2-8.3 0-15.5 5-15.5 12.8a8 8 0 004.4 7.5v3.7c-4 1-6.7 3-6.7 6.4 0 2.5 1.8 4.2 5 4.7v3.7c-3.5.9-5.7 3.1-5.7 6 0 3.5 2.2 6.5 9 6.5zm10.7-32c-3.2 0-5.2-2.2-5.2-5.9s2-6 5.2-6 5.4 2.3 5.4 6-2.2 5.8-5.4 5.8zm-6.8 23.8c-2.1 0-3.3-1.1-3.3-3 0-1.1.7-2.2 1.5-2.8h15.7c2.6 0 3.7 1.3 3.7 2.8 0 1.8-1 3-3.7 3h-13.9zm79.3-16.5V28.6h-11.1a16 16 0 01-14.8 10.6v13c6.7-.1 9.5-5.5 11.4-12h4.7a24.8 24.8 0 00-2.6 12v16.1h-14.8V79h37.1V68.3h-9.9zM228.2 79h37.3V68.3h-10.4c-7.6 0-12.7 2.7-15.8 4.8l-2-4.2c9.3-4.2 19-8.1 23.6-13.5a18 18 0 004.6-12c0-9.7-7.3-16-18.6-16a18 18 0 00-19.4 18.5l12.2 1.9c0-4.5 1.4-9.8 6.8-9.8 3.6 0 6.2 2.4 6.2 6.7 0 5.9-4 11-24.5 21.4V79zm63.2 1.2c12.2 0 19.2-5.2 19.2-13.7 0-6.4-5-11-15-11.3V51c8.4-.2 13.7-3.6 13.7-10.7 0-7.2-7.1-13-18-13-11.2 0-17.9 6.6-18.7 15l12.2 2c.5-4 2.7-6.4 6.3-6.4 3.3 0 6 2 6 5.4 0 3.4-2.8 5.5-6.3 5.5h-5v9.5h5.2c4.3 0 6.7 2.4 6.7 5.7 0 3.6-2.6 5.8-6.7 5.8-4.3 0-6.8-2.7-7.4-7.5L270.9 65c1.6 9.8 8.8 15.2 20.5 15.2z" fill="#5551ff" stroke-width="3px"></path><path d="M21 80h307" stroke="#5551ff" fill="none" stroke-width="3px"></path></svg>