<svg xmlns="http://www.w3.org/2000/svg" viewBox="0 0 262 245" stroke="#5551FF" stroke-width="3" fill="none"><path d="M6 55.7c140-99 222.7-45.2 110 33-88 61.2-59 125 43 67 98.6-56 167 39 0 83" stroke="#5551ff" fill="none" stroke-width="3px"></path><path fill="#ffffff" d="M10.5 55a4.5 4.5 0 11-9 0 4.5 4.5 0 019 0zm154 184a4.5 4.5 0 11-9 0 4.5 4.5 0 019 0z" stroke="#5551ff" stroke-width="3px"></path><path d="M25.4 150l203-136" stroke="#5551ff" fill="none" stroke-width="3px"></path><path fill="#ffffff" d="M233.5 13.7a4.5 4.5 0 11-9 0 4.5 4.5 0 019 0zM30.5 150a4.5 4.5 0 11-9 0 4.5 4.5 0 019 0zm90-60.8a4.5 4.5 0 11-9 0 4.5 4.5 0 019 0z" stroke="#5551ff" stroke-width="3px"></path></svg>