<svg viewBox="0 0 368 388" fill="none" stroke-width="2" xmlns="http://www.w3.org/2000/svg"><rect width="340" height="360" x="26" y="26" rx="24" fill="#ffc700" stroke="#000000" stroke-width="2px"></rect><rect width="340" height="360" x="14" y="14" rx="24" fill="#ffc700" stroke="#000000" stroke-width="2px"></rect><rect width="340" height="360" x="2" y="2" rx="24" fill="#ffc700" stroke="#000000" stroke-width="2px"></rect><line x1="120" y1="40" x2="189" y2="90" stroke="#0fa958" stroke-width="20px" fill="none"></line><line x1="280" y1="80" x2="189" y2="90" stroke="#0fa958" stroke-width="20px" fill="none"></line><line x1="300" y1="340" x2="189" y2="90" stroke="#0fa958" stroke-width="20px" fill="none"></line><line x1="60" y1="330" x2="189" y2="90" stroke="#0fa958" stroke-width="20px" fill="none"></line><line x1="40" y1="180" x2="189" y2="90" stroke="#0fa958" stroke-width="20px" fill="none"></line><line x1="310" y1="160" x2="189" y2="90" stroke="#0fa958" stroke-width="20px" fill="none"></line><line x1="40" y1="240" x2="189" y2="90" stroke="#0fa958" stroke-width="20px" fill="none"></line><line x1="120" y1="40" x2="189" y2="90" stroke="#000000" fill="none" stroke-width="2px"></line><line x1="280" y1="80" x2="189" y2="90" stroke="#000000" fill="none" stroke-width="2px"></line><line x1="300" y1="340" x2="189" y2="90" stroke="#000000" fill="none" stroke-width="2px"></line><line x1="60" y1="330" x2="189" y2="90" stroke="#000000" fill="none" stroke-width="2px"></line><line x1="40" y1="180" x2="189" y2="90" stroke="#000000" fill="none" stroke-width="2px"></line><line x1="310" y1="160" x2="189" y2="90" stroke="#000000" fill="none" stroke-width="2px"></line><line x1="40" y1="240" x2="189" y2="90" stroke="#000000" fill="none" stroke-width="2px"></line><circle r="10" stroke="#000000" fill="#ffffff" cx="120" cy="40" stroke-width="2px"></circle><circle r="10" stroke="#000000" fill="#ffffff" cx="280" cy="80" stroke-width="2px"></circle><circle r="10" stroke="#000000" fill="#ffffff" cx="300" cy="340" stroke-width="2px"></circle><circle r="10" stroke="#000000" fill="#ffffff" cx="60" cy="330" stroke-width="2px"></circle><circle r="10" stroke="#000000" fill="#ffffff" cx="40" cy="180" stroke-width="2px"></circle><circle r="10" stroke="#000000" fill="#ffffff" cx="310" cy="160" stroke-width="2px"></circle><circle r="10" stroke="#000000" fill="#ffffff" cx="40" cy="240" stroke-width="2px"></circle><circle r="10" stroke="#000000" fill="#ffffff" cx="189" cy="90" stroke-width="2px"></circle></svg>